<svg xmlns="http://www.w3.org/2000/svg" width="50" height="50" viewBox="0 0 50 50">
  <metadata><?xpacket begin="﻿" id="W5M0MpCehiHzreSzNTczkc9d"?>
<x:xmpmeta xmlns:x="adobe:ns:meta/" x:xmptk="Adobe XMP Core 5.6-c138 79.159824, 2016/09/14-01:09:01        ">
   <rdf:RDF xmlns:rdf="http://www.w3.org/1999/02/22-rdf-syntax-ns#">
      <rdf:Description rdf:about=""/>
   </rdf:RDF>
</x:xmpmeta>
                                                                                                    
                                                                                                    
                                                                                                    
                                                                                                    
                                                                                                    
                                                                                                    
                                                                                                    
                                                                                                    
                                                                                                    
                                                                                                    
                                                                                                    
                                                                                                    
                                                                                                    
                                                                                                    
                                                                                                    
                                                                                                    
                                                                                                    
                                                                                                    
                                                                                                    
                                                                                                    
                           
<?xpacket end="w"?></metadata>
<defs>
    <style>
      .cls-1 {
        fill: #6D75A2;
        fill-rule: evenodd;
      }
    </style>
  </defs>
  <path id="详情_" data-name="详情 " class="cls-1" d="M742.455,3604c0.861,0.26,1.955-.05,2.826.16,1.336,0.33,2.708.42,3.946,0.85a22.933,22.933,0,0,1,13.064,10.85,28.836,28.836,0,0,1,2.132,5.77c0.226,0.78.13,1.5,0.32,2.35,0.764,3.42-.343,7.89-1.279,10.36-2.752,7.26-7.794,11.49-15.357,13.95a28.834,28.834,0,0,1-5.6.69,12.871,12.871,0,0,1-3.092-.27c-0.588-.14-1.047-0.05-1.6-0.21a26.763,26.763,0,0,1-4.372-1.5,28.8,28.8,0,0,1-2.613-1.28,23.131,23.131,0,0,1-8.105-8.55,26.36,26.36,0,0,1-1.706-4.06c-0.088-.25-0.021-0.38-0.107-0.64a19.039,19.039,0,0,1-.64-8.81c0.146-.62.046-1.12,0.214-1.71a27.884,27.884,0,0,1,1.6-4.86,23,23,0,0,1,12.744-11.75,39.559,39.559,0,0,1,4.906-1.18C740.253,3604.04,742.148,3604.19,742.455,3604Zm-0.48,2.99a7.416,7.416,0,0,0-2.133.16,37.963,37.963,0,0,0-4.212,1.07,19.573,19.573,0,0,0-11.411,11.49,33.529,33.529,0,0,0-.96,3.68c-0.122.49,0.008,0.88-.106,1.39a15.681,15.681,0,0,0,.639,6.95,19.152,19.152,0,0,0,10.292,12.28,23.669,23.669,0,0,0,4,1.5c0.767,0.22,1.461.13,2.292,0.32a10.53,10.53,0,0,0,2.667.16c0.273-.05.782,0.02,1.119-0.06,1.357-.31,2.719-0.32,3.946-0.74a19.445,19.445,0,0,0,12.264-26.29A19.214,19.214,0,0,0,741.975,3606.99Zm-1.333,9.51v-3.69a19.408,19.408,0,0,1,3.679-.05,18.782,18.782,0,0,1,.054,3.69A19.163,19.163,0,0,1,740.642,3616.5Zm0.053,1.5h3.626a8.35,8.35,0,0,1,.054,2.13v20.04a19.42,19.42,0,0,1-3.68.05,7.809,7.809,0,0,1-.053-1.98V3619.6A6.33,6.33,0,0,1,740.7,3618Z" transform="translate(-717.5 -3601.5)"/>
</svg>
